<svg width="111" height="111" viewBox="0 0 111 111" fill="none" xmlns="http://www.w3.org/2000/svg">
<path d="M46.7131 61V24.6H53.9411C57.6851 24.6 60.5971 25.38 62.6771 26.94C64.7571 28.5 65.7971 30.6667 65.7971 33.44C65.7971 35.4853 65.1905 37.236 63.9771 38.692C62.7638 40.1133 61.0651 41.084 58.8811 41.604V41.916C61.8625 42.2973 64.1851 43.3373 65.8491 45.036C67.5478 46.7 68.3971 48.8147 68.3971 51.38C68.3971 54.396 67.2358 56.7533 64.9131 58.452C62.5905 60.1507 59.3318 61 55.1371 61H46.7131ZM53.9931 25.848H50.2491V41.448H53.9411C59.4185 41.448 62.1571 38.848 62.1571 33.648C62.1571 28.448 59.4358 25.848 53.9931 25.848ZM55.1371 42.696H50.2491V59.752H55.1371C61.4811 59.752 64.6531 56.9093 64.6531 51.224C64.6531 45.5387 61.4811 42.696 55.1371 42.696ZM30.387 48.6H37.355C41.0296 48.6 43.8723 49.38 45.883 50.94C47.9283 52.4653 48.951 54.6147 48.951 57.388C48.951 59.5373 48.3096 61.3227 47.027 62.744C45.779 64.1653 43.959 65.1187 41.567 65.604V65.916C43.855 66.3667 45.727 67.4413 47.183 69.14C48.639 70.8387 49.731 72.936 50.459 75.432C51.1176 77.72 51.759 79.5053 52.383 80.788C53.0416 82.036 53.7523 82.9373 54.515 83.492C55.3123 84.0467 56.2483 84.4453 57.323 84.688V85H55.191C53.6656 85 52.4003 84.7227 51.395 84.168C50.4243 83.6133 49.5923 82.6773 48.899 81.36C48.2056 80.0427 47.547 78.2227 46.923 75.9C45.9176 72.3293 44.583 69.7987 42.919 68.308C41.255 66.8173 39.227 66.072 36.835 66.072H36.523V65.136H36.835C42.4163 65.136 45.207 62.5707 45.207 57.44C45.207 52.3787 42.5896 49.848 37.355 49.848H33.923V85H30.387V48.6ZM69.7343 85V49.64C69.2143 49.64 68.1396 49.744 66.5103 49.952L56.3183 51.252V48.6H86.6863V51.252L76.4943 49.952C74.865 49.744 73.7903 49.64 73.2703 49.64V85H69.7343Z" fill="white"/>
<circle cx="55.5" cy="55.5" r="54.5" stroke="#F89A0A" stroke-width="2"/>
</svg>
