<svg width="318" height="75" viewBox="0 0 318 75" fill="none" xmlns="http://www.w3.org/2000/svg">
<rect width="1.95" height="303.789" transform="matrix(-4.37114e-08 1 1 4.37114e-08 5.84216 0)" fill="#A9A9A9"/>
<rect width="1.95" height="303.789" transform="matrix(-4.37114e-08 1 1 4.37114e-08 5.84216 72.0526)" fill="#A9A9A9"/>
<path d="M33.7186 55.6316V19.2316H40.9466C44.6906 19.2316 47.6026 20.0116 49.6826 21.5716C51.7626 23.1316 52.8026 25.2983 52.8026 28.0716C52.8026 30.1169 52.1959 31.8676 50.9826 33.3236C49.7692 34.7449 48.0706 35.7156 45.8866 36.2356V36.5476C48.8679 36.9289 51.1906 37.9689 52.8546 39.6676C54.5532 41.3316 55.4026 43.4463 55.4026 46.0116C55.4026 49.0276 54.2412 51.3849 51.9186 53.0836C49.5959 54.7823 46.3372 55.6316 42.1426 55.6316H33.7186ZM40.9986 20.4796H37.2546V36.0796H40.9466C46.4239 36.0796 49.1626 33.4796 49.1626 28.2796C49.1626 23.0796 46.4412 20.4796 40.9986 20.4796ZM42.1426 37.3276H37.2546V54.3836H42.1426C48.4866 54.3836 51.6586 51.5409 51.6586 45.8556C51.6586 40.1703 48.4866 37.3276 42.1426 37.3276ZM65.8123 19.2316H72.7803C76.455 19.2316 79.2977 20.0116 81.3083 21.5716C83.3537 23.0969 84.3763 25.2463 84.3763 28.0196C84.3763 30.1689 83.735 31.9543 82.4523 33.3756C81.2043 34.7969 79.3843 35.7503 76.9923 36.2356V36.5476C79.2803 36.9983 81.1523 38.0729 82.6083 39.7716C84.0643 41.4703 85.1563 43.5676 85.8843 46.0636C86.543 48.3516 87.1843 50.1369 87.8083 51.4196C88.467 52.6676 89.1777 53.5689 89.9403 54.1236C90.7377 54.6783 91.6737 55.0769 92.7483 55.3196V55.6316H90.6163C89.091 55.6316 87.8257 55.3543 86.8203 54.7996C85.8497 54.2449 85.0177 53.3089 84.3243 51.9916C83.631 50.6743 82.9723 48.8543 82.3483 46.5316C81.343 42.9609 80.0083 40.4303 78.3443 38.9396C76.6803 37.4489 74.6523 36.7036 72.2603 36.7036H71.9483V35.7676H72.2603C77.8417 35.7676 80.6323 33.2023 80.6323 28.0716C80.6323 23.0103 78.015 20.4796 72.7803 20.4796H69.3483V55.6316H65.8123V19.2316ZM105.16 55.6316V20.2716C104.64 20.2716 103.565 20.3756 101.936 20.5836L91.7437 21.8836V19.2316H122.112V21.8836L111.92 20.5836C110.29 20.3756 109.216 20.2716 108.696 20.2716V55.6316H105.16ZM143.794 55.6316L145.094 18.5036H145.718L171.874 50.1196H172.186L171.042 19.2316H174.578L173.278 56.3596H172.654L146.498 24.7436H146.186L147.33 55.6316H143.794ZM187.332 55.6316V19.2316H203.192V21.7796L194.092 20.5836C192.497 20.3756 191.423 20.2716 190.868 20.2716V36.1316C191.319 36.1316 192.393 36.0796 194.092 35.9756L202.62 35.4556V37.8476L194.092 37.3276C192.393 37.2236 191.319 37.1716 190.868 37.1716V54.5916C191.492 54.5916 192.584 54.4876 194.144 54.2796L203.348 53.0836V55.6316H187.332ZM209.15 19.2316H212.946L225.686 51.0556H225.998L234.318 30.4636L229.794 19.2316H233.59L246.278 50.9516H246.59L257.094 19.2316H260.89L245.914 56.3596H244.77L235.046 32.1796L225.27 56.3596H224.126L209.15 19.2316ZM265.816 54.4876L266.128 51.3676H266.44C267.792 52.5463 269.317 53.4649 271.016 54.1236C272.715 54.7823 274.396 55.1116 276.06 55.1116C278.417 55.1116 280.324 54.4703 281.78 53.1876C283.236 51.8703 283.964 50.1196 283.964 47.9356C283.964 46.7223 283.687 45.5956 283.132 44.5556C282.612 43.5156 281.728 42.4583 280.48 41.3836C279.267 40.3089 277.585 39.1476 275.436 37.8996C273.945 37.0329 272.524 36.1316 271.172 35.1956C269.82 34.2249 268.711 33.1156 267.844 31.8676C266.977 30.5849 266.544 29.0596 266.544 27.2916C266.544 24.6569 267.497 22.5423 269.404 20.9476C271.311 19.3183 273.824 18.5036 276.944 18.5036C278.331 18.5036 279.821 18.6596 281.416 18.9716C283.011 19.2489 284.241 19.6129 285.108 20.0636L284.848 22.9756H284.536C282.56 20.8263 280.029 19.7516 276.944 19.7516C274.725 19.7516 272.94 20.3236 271.588 21.4676C270.236 22.5769 269.56 24.0849 269.56 25.9916C269.56 27.4129 269.924 28.6436 270.652 29.6836C271.415 30.6889 272.385 31.6076 273.564 32.4396C274.743 33.2369 276.008 34.0169 277.36 34.7796C278.92 35.6809 280.428 36.6343 281.884 37.6396C283.375 38.6449 284.588 39.8583 285.524 41.2796C286.495 42.6663 286.98 44.4169 286.98 46.5316C286.98 48.4729 286.529 50.1889 285.628 51.6796C284.727 53.1356 283.444 54.2796 281.78 55.1116C280.151 55.9436 278.244 56.3596 276.06 56.3596C274.673 56.3596 273.044 56.1863 271.172 55.8396C269.3 55.4929 267.515 55.0423 265.816 54.4876Z" fill="black"/>
</svg>
