<svg width="500" height="173" viewBox="0 0 500 173" fill="none" xmlns="http://www.w3.org/2000/svg">
<rect x="4.5" y="47.5" width="121" height="121" rx="16.5" fill="#409BFF" stroke="#315699" stroke-width="9"/>
<rect x="190.5" y="47.5" width="121" height="121" rx="16.5" fill="#27D724" stroke="#3B8F39" stroke-width="9"/>
<path d="M8.37549 7.11719H17.416C19.3073 7.11719 20.9308 7.40202 22.2866 7.97168C23.6424 8.54134 24.6849 9.38444 25.4141 10.501C26.1432 11.6175 26.5078 12.9904 26.5078 14.6196C26.5078 15.9071 26.2799 17.0236 25.8242 17.9692C25.3685 18.9149 24.7248 19.7067 23.8931 20.3447C23.0728 20.9827 22.1043 21.484 20.9878 21.8486L19.5181 22.6006H11.5371L11.5029 18.8921H17.4673C18.4357 18.8921 19.2389 18.7212 19.877 18.3794C20.515 18.0376 20.9935 17.5648 21.3125 16.9609C21.6429 16.3571 21.8081 15.6678 21.8081 14.8931C21.8081 14.0614 21.6486 13.3436 21.3296 12.7397C21.0106 12.1245 20.5264 11.6517 19.877 11.3213C19.2275 10.9909 18.4072 10.8257 17.416 10.8257H13.0752V32H8.37549V7.11719ZM22.4233 32L16.6641 20.8574L21.6372 20.8403L27.4648 31.7607V32H22.4233ZM50.7754 18.9263V20.208C50.7754 22.0879 50.5247 23.7798 50.0234 25.2837C49.5221 26.7762 48.8101 28.0465 47.8872 29.0947C46.9644 30.1429 45.8649 30.9461 44.5889 31.5044C43.3128 32.0627 41.8944 32.3418 40.3335 32.3418C38.7954 32.3418 37.3826 32.0627 36.0952 31.5044C34.8192 30.9461 33.714 30.1429 32.7798 29.0947C31.8455 28.0465 31.1221 26.7762 30.6094 25.2837C30.0967 23.7798 29.8403 22.0879 29.8403 20.208V18.9263C29.8403 17.035 30.0967 15.3431 30.6094 13.8506C31.1221 12.3581 31.8398 11.0877 32.7627 10.0396C33.6855 8.97998 34.785 8.17106 36.061 7.61279C37.3485 7.05452 38.7612 6.77539 40.2993 6.77539C41.8602 6.77539 43.2786 7.05452 44.5547 7.61279C45.8307 8.17106 46.9302 8.97998 47.853 10.0396C48.7873 11.0877 49.505 12.3581 50.0063 13.8506C50.519 15.3431 50.7754 17.035 50.7754 18.9263ZM46.0244 20.208V18.8921C46.0244 17.5363 45.8991 16.3457 45.6484 15.3203C45.3978 14.2835 45.0275 13.4119 44.5376 12.7056C44.0477 11.9992 43.4438 11.4694 42.7261 11.1162C42.0083 10.7516 41.1994 10.5693 40.2993 10.5693C39.3879 10.5693 38.5789 10.7516 37.8726 11.1162C37.1776 11.4694 36.5851 11.9992 36.0952 12.7056C35.6053 13.4119 35.2293 14.2835 34.9673 15.3203C34.7166 16.3457 34.5913 17.5363 34.5913 18.8921V20.208C34.5913 21.5524 34.7166 22.743 34.9673 23.7798C35.2293 24.8166 35.6053 25.6938 36.0952 26.4116C36.5965 27.118 37.2004 27.6535 37.9067 28.0181C38.6131 28.3826 39.422 28.5649 40.3335 28.5649C41.245 28.5649 42.0539 28.3826 42.7603 28.0181C43.4666 27.6535 44.0591 27.118 44.5376 26.4116C45.0275 25.6938 45.3978 24.8166 45.6484 23.7798C45.8991 22.743 46.0244 21.5524 46.0244 20.208ZM68.6001 7.11719H73.2998V23.6431C73.2998 25.5457 72.8896 27.1465 72.0693 28.4453C71.249 29.7327 70.1325 30.7069 68.7197 31.3677C67.307 32.0171 65.7005 32.3418 63.9004 32.3418C62.0775 32.3418 60.4539 32.0171 59.0298 31.3677C57.6056 30.7069 56.4891 29.7327 55.6802 28.4453C54.8713 27.1465 54.4668 25.5457 54.4668 23.6431V7.11719H59.1665V23.6431C59.1665 24.8052 59.3602 25.7565 59.7476 26.4971C60.1349 27.2262 60.6818 27.7674 61.3882 28.1206C62.0946 28.4738 62.932 28.6504 63.9004 28.6504C64.8802 28.6504 65.7176 28.4738 66.4126 28.1206C67.119 27.7674 67.6602 27.2262 68.0361 26.4971C68.4121 25.7565 68.6001 24.8052 68.6001 23.6431V7.11719ZM97.7554 7.11719V32H93.0386L82.46 14.7393V32H77.7603V7.11719H82.46L93.0728 24.395V7.11719H97.7554ZM109.975 32H104.608L104.643 28.3086H109.975C111.422 28.3086 112.635 27.9896 113.615 27.3516C114.595 26.7021 115.335 25.7736 115.836 24.5659C116.338 23.3468 116.588 21.8885 116.588 20.1909V18.9092C116.588 17.599 116.446 16.4425 116.161 15.4399C115.876 14.4373 115.455 13.5942 114.896 12.9106C114.35 12.2271 113.672 11.7087 112.863 11.3555C112.054 11.0023 111.125 10.8257 110.077 10.8257H104.506V7.11719H110.077C111.741 7.11719 113.256 7.39632 114.623 7.95459C116.002 8.51286 117.192 9.31608 118.195 10.3643C119.209 11.401 119.984 12.6429 120.519 14.0898C121.066 15.5368 121.339 17.1546 121.339 18.9434V20.1909C121.339 21.9683 121.066 23.5861 120.519 25.0444C119.984 26.4914 119.209 27.7332 118.195 28.77C117.192 29.8068 115.996 30.6043 114.606 31.1626C113.216 31.7209 111.672 32 109.975 32ZM107.24 7.11719V32H102.541V7.11719H107.24Z" fill="#409BFF"/>
<path d="M219.494 27.2319L224.45 7.11719H227.133L227.304 11.3555L222.006 32H219.169L219.494 27.2319ZM216.366 7.11719L220.434 27.1636V32H217.34L211.701 7.11719H216.366ZM232.448 27.0781L236.447 7.11719H241.129L235.49 32H232.396L232.448 27.0781ZM228.415 7.11719L233.371 27.3003L233.661 32H230.824L225.543 11.3384L225.749 7.11719H228.415ZM264.252 18.9263V20.208C264.252 22.0879 264.001 23.7798 263.5 25.2837C262.999 26.7762 262.287 28.0465 261.364 29.0947C260.441 30.1429 259.341 30.9461 258.065 31.5044C256.789 32.0627 255.371 32.3418 253.81 32.3418C252.272 32.3418 250.859 32.0627 249.572 31.5044C248.296 30.9461 247.191 30.1429 246.256 29.0947C245.322 28.0465 244.599 26.7762 244.086 25.2837C243.573 23.7798 243.317 22.0879 243.317 20.208V18.9263C243.317 17.035 243.573 15.3431 244.086 13.8506C244.599 12.3581 245.316 11.0877 246.239 10.0396C247.162 8.97998 248.262 8.17106 249.538 7.61279C250.825 7.05452 252.238 6.77539 253.776 6.77539C255.337 6.77539 256.755 7.05452 258.031 7.61279C259.307 8.17106 260.407 8.97998 261.33 10.0396C262.264 11.0877 262.982 12.3581 263.483 13.8506C263.996 15.3431 264.252 17.035 264.252 18.9263ZM259.501 20.208V18.8921C259.501 17.5363 259.376 16.3457 259.125 15.3203C258.874 14.2835 258.504 13.4119 258.014 12.7056C257.524 11.9992 256.92 11.4694 256.203 11.1162C255.485 10.7516 254.676 10.5693 253.776 10.5693C252.864 10.5693 252.056 10.7516 251.349 11.1162C250.654 11.4694 250.062 11.9992 249.572 12.7056C249.082 13.4119 248.706 14.2835 248.444 15.3203C248.193 16.3457 248.068 17.5363 248.068 18.8921V20.208C248.068 21.5524 248.193 22.743 248.444 23.7798C248.706 24.8166 249.082 25.6938 249.572 26.4116C250.073 27.118 250.677 27.6535 251.383 28.0181C252.09 28.3826 252.899 28.5649 253.81 28.5649C254.722 28.5649 255.53 28.3826 256.237 28.0181C256.943 27.6535 257.536 27.118 258.014 26.4116C258.504 25.6938 258.874 24.8166 259.125 23.7798C259.376 22.743 259.501 21.5524 259.501 20.208ZM288.229 7.11719V32H283.512L272.934 14.7393V32H268.234V7.11719H272.934L283.546 24.395V7.11719H288.229Z" fill="#27D724"/>
<path d="M410.167 28.3086V32H397.657V28.3086H410.167ZM399.075 7.11719V32H394.375V7.11719H399.075ZM432.332 18.9263V20.208C432.332 22.0879 432.081 23.7798 431.58 25.2837C431.079 26.7762 430.367 28.0465 429.444 29.0947C428.521 30.1429 427.422 30.9461 426.146 31.5044C424.869 32.0627 423.451 32.3418 421.89 32.3418C420.352 32.3418 418.939 32.0627 417.652 31.5044C416.376 30.9461 415.271 30.1429 414.336 29.0947C413.402 28.0465 412.679 26.7762 412.166 25.2837C411.653 23.7798 411.397 22.0879 411.397 20.208V18.9263C411.397 17.035 411.653 15.3431 412.166 13.8506C412.679 12.3581 413.396 11.0877 414.319 10.0396C415.242 8.97998 416.342 8.17106 417.618 7.61279C418.905 7.05452 420.318 6.77539 421.856 6.77539C423.417 6.77539 424.835 7.05452 426.111 7.61279C427.387 8.17106 428.487 8.97998 429.41 10.0396C430.344 11.0877 431.062 12.3581 431.563 13.8506C432.076 15.3431 432.332 17.035 432.332 18.9263ZM427.581 20.208V18.8921C427.581 17.5363 427.456 16.3457 427.205 15.3203C426.954 14.2835 426.584 13.4119 426.094 12.7056C425.604 11.9992 425 11.4694 424.283 11.1162C423.565 10.7516 422.756 10.5693 421.856 10.5693C420.944 10.5693 420.136 10.7516 419.429 11.1162C418.734 11.4694 418.142 11.9992 417.652 12.7056C417.162 13.4119 416.786 14.2835 416.524 15.3203C416.273 16.3457 416.148 17.5363 416.148 18.8921V20.208C416.148 21.5524 416.273 22.743 416.524 23.7798C416.786 24.8166 417.162 25.6938 417.652 26.4116C418.153 27.118 418.757 27.6535 419.463 28.0181C420.17 28.3826 420.979 28.5649 421.89 28.5649C422.802 28.5649 423.611 28.3826 424.317 28.0181C425.023 27.6535 425.616 27.118 426.094 26.4116C426.584 25.6938 426.954 24.8166 427.205 23.7798C427.456 22.743 427.581 21.5524 427.581 20.208ZM449.336 25.54C449.336 25.0615 449.262 24.6343 449.114 24.2583C448.978 23.8709 448.721 23.5234 448.345 23.2158C447.981 22.8968 447.462 22.5892 446.79 22.293C446.129 21.9854 445.275 21.6663 444.227 21.3359C443.064 20.9714 441.982 20.5612 440.979 20.1055C439.977 19.6497 439.094 19.12 438.331 18.5161C437.579 17.9123 436.992 17.2173 436.57 16.4312C436.149 15.6336 435.938 14.7108 435.938 13.6626C435.938 12.6372 436.154 11.703 436.587 10.8599C437.032 10.0168 437.658 9.29329 438.467 8.68945C439.276 8.07422 440.228 7.6014 441.321 7.271C442.426 6.94059 443.646 6.77539 444.979 6.77539C446.824 6.77539 448.419 7.11149 449.764 7.78369C451.119 8.45589 452.168 9.36735 452.908 10.5181C453.649 11.6688 454.019 12.9619 454.019 14.3975H449.336C449.336 13.6227 449.171 12.9391 448.841 12.3467C448.522 11.7542 448.032 11.2871 447.371 10.9453C446.722 10.6035 445.901 10.4326 444.91 10.4326C443.953 10.4326 443.156 10.575 442.518 10.8599C441.891 11.1447 441.418 11.5321 441.099 12.022C440.792 12.5119 440.638 13.0588 440.638 13.6626C440.638 14.1183 440.746 14.5285 440.962 14.8931C441.179 15.2463 441.504 15.5824 441.937 15.9014C442.369 16.209 442.905 16.4995 443.543 16.7729C444.192 17.035 444.944 17.297 445.799 17.5591C447.166 17.9692 448.362 18.425 449.388 18.9263C450.424 19.4276 451.285 19.9972 451.968 20.6353C452.663 21.2733 453.182 21.991 453.523 22.7886C453.877 23.5861 454.053 24.4919 454.053 25.5059C454.053 26.5768 453.842 27.5339 453.421 28.377C452.999 29.2201 452.396 29.9378 451.609 30.5303C450.823 31.1227 449.878 31.5728 448.772 31.8804C447.679 32.188 446.454 32.3418 445.098 32.3418C443.89 32.3418 442.694 32.1823 441.509 31.8633C440.336 31.5329 439.271 31.043 438.313 30.3936C437.356 29.7327 436.593 28.901 436.023 27.8984C435.454 26.8844 435.169 25.6995 435.169 24.3438H439.886C439.886 25.1299 440.011 25.8021 440.262 26.3604C440.524 26.9072 440.888 27.3573 441.355 27.7104C441.834 28.0522 442.392 28.3029 443.03 28.4624C443.668 28.6219 444.358 28.7017 445.098 28.7017C446.055 28.7017 446.841 28.5706 447.457 28.3086C448.083 28.0352 448.55 27.6592 448.858 27.1807C449.177 26.7021 449.336 26.1553 449.336 25.54ZM468.357 7.11719V32H463.675V7.11719H468.357ZM476.082 7.11719V10.8257H456.036V7.11719H476.082Z" fill="#DE3500"/>
<path d="M75.6343 74.0747H77.4595V84.0698H76.7207C73.418 84.0698 70.4774 84.5623 67.8989 85.5474C65.3205 86.5324 63.1331 87.9375 61.3369 89.7627C59.5697 91.5589 58.208 93.7318 57.252 96.2812C56.3249 98.8307 55.8613 101.684 55.8613 104.842V115.359C55.8613 117.619 56.0786 119.618 56.5132 121.356C56.9767 123.065 57.6286 124.499 58.4688 125.658C59.3379 126.788 60.3519 127.643 61.5107 128.222C62.6696 128.773 63.9733 129.048 65.4219 129.048C66.7835 129.048 68.0148 128.758 69.1157 128.179C70.2456 127.599 71.2017 126.788 71.9839 125.745C72.7951 124.673 73.4035 123.427 73.8091 122.008C74.2437 120.559 74.4609 118.98 74.4609 117.271C74.4609 115.562 74.2437 113.983 73.8091 112.534C73.4035 111.086 72.7951 109.84 71.9839 108.797C71.1727 107.725 70.1877 106.899 69.0288 106.32C67.87 105.74 66.5662 105.451 65.1177 105.451C63.1476 105.451 61.4093 105.914 59.9028 106.841C58.4253 107.739 57.2664 108.898 56.4263 110.318C55.5861 111.737 55.137 113.229 55.0791 114.794L51.2983 112.36C51.3853 110.13 51.8488 108.015 52.689 106.016C53.5581 104.017 54.7459 102.249 56.2524 100.714C57.7879 99.1494 59.6276 97.9326 61.7715 97.0635C63.9154 96.1654 66.3345 95.7163 69.0288 95.7163C71.9839 95.7163 74.5768 96.2812 76.8076 97.4111C79.0674 98.541 80.9505 100.091 82.457 102.061C83.9635 104.031 85.0934 106.305 85.8467 108.884C86.5999 111.462 86.9766 114.215 86.9766 117.141C86.9766 120.212 86.4696 123.065 85.4556 125.702C84.4705 128.338 83.0365 130.641 81.1533 132.611C79.2992 134.581 77.0684 136.117 74.4609 137.218C71.8535 138.319 68.9274 138.869 65.6826 138.869C62.3219 138.869 59.2655 138.261 56.5132 137.044C53.7899 135.798 51.4432 134.06 49.4731 131.829C47.5031 129.598 45.9821 126.947 44.9102 123.876C43.8672 120.806 43.3457 117.445 43.3457 113.794V108.927C43.3457 103.828 44.0845 99.1639 45.562 94.9341C47.0685 90.6753 49.2269 86.9959 52.0371 83.896C54.8473 80.7671 58.237 78.348 62.2061 76.6387C66.1751 74.9294 70.6512 74.0747 75.6343 74.0747Z" fill="white"/>
<path d="M242.166 100.931H248.858C251.002 100.931 252.769 100.569 254.16 99.8447C255.55 99.0915 256.579 98.0485 257.245 96.7158C257.94 95.3542 258.288 93.7752 258.288 91.979C258.288 90.3566 257.969 88.9225 257.332 87.6768C256.724 86.402 255.782 85.417 254.507 84.7217C253.233 83.9974 251.625 83.6353 249.684 83.6353C248.148 83.6353 246.729 83.9395 245.425 84.5479C244.121 85.1562 243.078 86.0109 242.296 87.1118C241.514 88.2127 241.123 89.5454 241.123 91.1099H228.563C228.563 87.6333 229.491 84.6058 231.345 82.0273C233.228 79.4489 235.748 77.4354 238.906 75.9868C242.064 74.5382 245.541 73.814 249.336 73.814C253.624 73.814 257.375 74.5093 260.591 75.8999C263.807 77.2616 266.313 79.2751 268.109 81.9404C269.906 84.6058 270.804 87.9085 270.804 91.8486C270.804 93.8477 270.34 95.7887 269.413 97.6719C268.486 99.526 267.153 101.206 265.415 102.713C263.706 104.19 261.62 105.378 259.157 106.276C256.695 107.146 253.928 107.58 250.857 107.58H242.166V100.931ZM242.166 110.448V103.973H250.857C254.305 103.973 257.332 104.364 259.939 105.146C262.547 105.929 264.734 107.059 266.501 108.536C268.269 109.985 269.601 111.708 270.5 113.708C271.398 115.678 271.847 117.865 271.847 120.27C271.847 123.225 271.282 125.861 270.152 128.179C269.022 130.467 267.429 132.409 265.372 134.002C263.344 135.595 260.968 136.812 258.245 137.652C255.521 138.464 252.552 138.869 249.336 138.869C246.671 138.869 244.049 138.507 241.47 137.783C238.921 137.029 236.603 135.914 234.517 134.437C232.46 132.93 230.809 131.047 229.563 128.787C228.346 126.498 227.738 123.79 227.738 120.661H240.297C240.297 122.283 240.702 123.732 241.514 125.006C242.325 126.281 243.44 127.281 244.86 128.005C246.308 128.729 247.916 129.091 249.684 129.091C251.683 129.091 253.392 128.729 254.812 128.005C256.26 127.252 257.361 126.209 258.114 124.876C258.896 123.514 259.288 121.935 259.288 120.139C259.288 117.821 258.868 115.967 258.027 114.577C257.187 113.157 255.985 112.114 254.42 111.448C252.856 110.781 251.002 110.448 248.858 110.448H242.166Z" fill="white"/>
<rect x="374.5" y="47.5" width="121" height="121" rx="16.5" fill="#DE3500" stroke="#862000" stroke-width="9"/>
<path d="M456.629 128.222V138H413.346V129.656L433.814 107.71C435.871 105.422 437.493 103.408 438.681 101.67C439.869 99.9027 440.724 98.3237 441.245 96.9331C441.796 95.5135 442.071 94.1663 442.071 92.8916C442.071 90.9795 441.752 89.3426 441.115 87.981C440.477 86.5903 439.536 85.5184 438.29 84.7651C437.073 84.0119 435.567 83.6353 433.771 83.6353C431.858 83.6353 430.207 84.0988 428.816 85.0259C427.455 85.953 426.412 87.2422 425.688 88.8936C424.992 90.5449 424.645 92.4136 424.645 94.4995H412.085C412.085 90.7332 412.984 87.2856 414.78 84.1567C416.576 80.9989 419.111 78.4928 422.385 76.6387C425.659 74.7555 429.541 73.814 434.031 73.814C438.464 73.814 442.201 74.5382 445.243 75.9868C448.314 77.4064 450.632 79.4634 452.196 82.1577C453.79 84.8231 454.586 88.0099 454.586 91.7183C454.586 93.8042 454.253 95.8467 453.587 97.8457C452.921 99.8158 451.965 101.786 450.719 103.756C449.502 105.697 448.024 107.667 446.286 109.666C444.548 111.665 442.621 113.736 440.506 115.88L429.512 128.222H456.629Z" fill="white"/>
</svg>
