<svg width="353" height="146" viewBox="0 0 353 146" fill="none" xmlns="http://www.w3.org/2000/svg">
<path d="M92.1919 39.0376V44.1792H75.4927V39.0376H92.1919ZM77.4482 26.0078V58H70.8564V26.0078H77.4482ZM96.894 26.0078V58H90.3242V26.0078H96.894ZM109.638 26.0078V58H103.068V26.0078H109.638ZM129.458 26.0078V58H122.888V26.0078H129.458ZM139.301 26.0078V31.1714H113.198V26.0078H139.301Z" fill="white"/>
<path d="M190.771 84.6484V101H187.413V84.6484H190.771ZM195.802 84.6484V87.2876H182.46V84.6484H195.802ZM210.84 92.4424V93.2173C210.84 94.4601 210.671 95.5757 210.334 96.564C209.998 97.5522 209.522 98.3945 208.908 99.0908C208.294 99.7796 207.561 100.307 206.707 100.674C205.861 101.041 204.921 101.225 203.888 101.225C202.862 101.225 201.923 101.041 201.069 100.674C200.223 100.307 199.49 99.7796 198.868 99.0908C198.247 98.3945 197.764 97.5522 197.419 96.564C197.083 95.5757 196.914 94.4601 196.914 93.2173V92.4424C196.914 91.1921 197.083 90.0765 197.419 89.0957C197.756 88.1074 198.232 87.2651 198.846 86.5688C199.467 85.8726 200.201 85.341 201.047 84.9741C201.9 84.6073 202.84 84.4238 203.866 84.4238C204.899 84.4238 205.839 84.6073 206.685 84.9741C207.538 85.341 208.272 85.8726 208.886 86.5688C209.507 87.2651 209.986 88.1074 210.323 89.0957C210.668 90.0765 210.84 91.1921 210.84 92.4424ZM207.437 93.2173V92.4199C207.437 91.5514 207.358 90.7878 207.201 90.1289C207.044 89.4701 206.812 88.916 206.505 88.4668C206.198 88.0176 205.824 87.6807 205.382 87.4561C204.94 87.224 204.435 87.1079 203.866 87.1079C203.297 87.1079 202.791 87.224 202.35 87.4561C201.915 87.6807 201.545 88.0176 201.238 88.4668C200.938 88.916 200.71 89.4701 200.553 90.1289C200.396 90.7878 200.317 91.5514 200.317 92.4199V93.2173C200.317 94.0783 200.396 94.842 200.553 95.5083C200.71 96.1672 200.942 96.7249 201.249 97.1816C201.556 97.6309 201.93 97.9715 202.372 98.2036C202.814 98.4357 203.319 98.5518 203.888 98.5518C204.457 98.5518 204.963 98.4357 205.404 98.2036C205.846 97.9715 206.217 97.6309 206.516 97.1816C206.816 96.7249 207.044 96.1672 207.201 95.5083C207.358 94.842 207.437 94.0783 207.437 93.2173ZM219.813 84.6484V101H216.455V84.6484H219.813ZM224.844 84.6484V87.2876H211.502V84.6484H224.844ZM232.2 87.4448L227.753 101H224.17L230.246 84.6484H232.526L232.2 87.4448ZM235.895 101L231.437 87.4448L231.077 84.6484H233.379L239.489 101H235.895ZM235.693 94.9131V97.5522H227.057V94.9131H235.693ZM251.517 98.3721V101H243.285V98.3721H251.517ZM244.374 84.6484V101H241.005V84.6484H244.374ZM264.196 101H260.636L260.658 98.3721H264.196C265.079 98.3721 265.824 98.1737 266.431 97.7769C267.037 97.3726 267.494 96.7848 267.801 96.0137C268.115 95.2425 268.272 94.3104 268.272 93.2173V92.4199C268.272 91.5814 268.183 90.8439 268.003 90.2075C267.831 89.5711 267.572 89.0358 267.228 88.6016C266.884 88.1673 266.461 87.8416 265.959 87.6245C265.457 87.3999 264.881 87.2876 264.229 87.2876H260.568V84.6484H264.229C265.323 84.6484 266.322 84.8356 267.228 85.21C268.141 85.5768 268.931 86.1047 269.598 86.7935C270.264 87.4823 270.777 88.3058 271.136 89.2642C271.503 90.215 271.687 91.2744 271.687 92.4424V93.2173C271.687 94.3778 271.503 95.4372 271.136 96.3955C270.777 97.3538 270.264 98.1774 269.598 98.8662C268.939 99.5475 268.149 100.075 267.228 100.45C266.315 100.817 265.304 101 264.196 101ZM262.545 84.6484V101H259.176V84.6484H262.545ZM280.536 87.4448L276.089 101H272.506L278.582 84.6484H280.862L280.536 87.4448ZM284.231 101L279.772 87.4448L279.413 84.6484H281.715L287.825 101H284.231ZM284.029 94.9131V97.5522H275.393V94.9131H284.029ZM290.879 84.6484H293.732L297.932 96.6538L302.132 84.6484H304.985L299.078 101H296.787L290.879 84.6484ZM289.341 84.6484H292.182L292.699 96.3506V101H289.341V84.6484ZM303.682 84.6484H306.535V101H303.166V96.3506L303.682 84.6484ZM316.339 87.4448L311.892 101H308.309L314.385 84.6484H316.665L316.339 87.4448ZM320.034 101L315.575 87.4448L315.216 84.6484H317.518L323.627 101H320.034ZM319.832 94.9131V97.5522H311.195V94.9131H319.832ZM337.901 92.4536V98.9336C337.647 99.2406 337.254 99.5737 336.722 99.9331C336.191 100.285 335.506 100.588 334.667 100.843C333.828 101.097 332.814 101.225 331.624 101.225C330.568 101.225 329.606 101.052 328.737 100.708C327.869 100.356 327.12 99.8433 326.491 99.1694C325.87 98.4956 325.391 97.672 325.054 96.6987C324.717 95.7179 324.548 94.5986 324.548 93.3408V92.3188C324.548 91.061 324.709 89.9417 325.031 88.9609C325.361 87.9801 325.829 87.1528 326.435 86.479C327.042 85.8052 327.764 85.2923 328.603 84.9404C329.441 84.5885 330.373 84.4126 331.399 84.4126C332.821 84.4126 333.989 84.6447 334.903 85.1089C335.816 85.5656 336.513 86.202 336.992 87.0181C337.478 87.8267 337.778 88.755 337.89 89.8032H334.622C334.54 89.2492 334.382 88.7663 334.15 88.3545C333.918 87.9427 333.585 87.6208 333.151 87.3887C332.724 87.1566 332.17 87.0405 331.489 87.0405C330.927 87.0405 330.426 87.1566 329.984 87.3887C329.55 87.6133 329.183 87.9465 328.883 88.3882C328.584 88.8299 328.355 89.3765 328.198 90.0278C328.041 90.6792 327.962 91.4354 327.962 92.2964V93.3408C327.962 94.1943 328.045 94.9505 328.209 95.6094C328.374 96.2607 328.618 96.811 328.939 97.2603C329.269 97.702 329.673 98.0352 330.152 98.2598C330.632 98.4844 331.189 98.5967 331.826 98.5967C332.357 98.5967 332.799 98.5518 333.151 98.4619C333.51 98.3721 333.799 98.2635 334.016 98.1362C334.24 98.0015 334.412 97.8742 334.532 97.7544V94.8569H331.455V92.4536H337.901ZM351.591 98.3721V101H342.888V98.3721H351.591ZM343.988 84.6484V101H340.619V84.6484H343.988ZM350.457 91.3081V93.8687H342.888V91.3081H350.457ZM351.58 84.6484V87.2876H342.888V84.6484H351.58Z" fill="white"/>
<path d="M64.5312 77.6562V90.6777H4.09082L3.28418 80.5947L38.2578 25.1094H51.4521L37.1631 49.0205L19.7627 77.6562H64.5312ZM55.0244 25.1094V109H38.4307V25.1094H55.0244Z" fill="#FF9C64"/>
<path d="M308.923 114.491V138H304.282V119.84L298.707 121.613V117.955L308.423 114.491H308.923ZM332.609 134.375V138H316.561V134.906L324.15 126.769C324.913 125.92 325.514 125.174 325.955 124.529C326.395 123.874 326.712 123.289 326.905 122.773C327.109 122.247 327.211 121.747 327.211 121.274C327.211 120.565 327.093 119.958 326.857 119.454C326.621 118.938 326.271 118.541 325.81 118.261C325.358 117.982 324.8 117.842 324.134 117.842C323.425 117.842 322.812 118.014 322.297 118.358C321.792 118.702 321.405 119.18 321.137 119.792C320.879 120.404 320.75 121.097 320.75 121.871H316.093C316.093 120.474 316.426 119.196 317.092 118.036C317.758 116.865 318.698 115.936 319.912 115.248C321.126 114.55 322.565 114.201 324.23 114.201C325.874 114.201 327.26 114.469 328.388 115.006C329.526 115.533 330.386 116.295 330.966 117.294C331.557 118.283 331.852 119.464 331.852 120.839C331.852 121.613 331.729 122.37 331.481 123.111C331.234 123.842 330.88 124.572 330.418 125.303C329.967 126.022 329.419 126.753 328.774 127.494C328.13 128.235 327.416 129.003 326.631 129.798L322.555 134.375H332.609ZM351.945 129.234V132.876H335.042L334.817 130.056L344.598 114.539H348.288L344.292 121.226L339.425 129.234H351.945ZM349.287 114.539V138H344.646V114.539H349.287Z" fill="white"/>
<path d="M151 75H353" stroke="white" stroke-width="2"/>
<path d="M167.5 16L173.45 34.3111H192.703L177.127 45.6279L183.076 63.9389L167.5 52.6221L151.924 63.9389L157.873 45.6279L142.297 34.3111H161.55L167.5 16Z" fill="#FFA800"/>
<path d="M220.5 16L226.45 34.3111H245.703L230.127 45.6279L236.076 63.9389L220.5 52.6221L204.924 63.9389L210.873 45.6279L195.297 34.3111H214.55L220.5 16Z" fill="#FFA800"/>
<path d="M273.5 16L279.45 34.3111H298.703L283.127 45.6279L289.076 63.9389L273.5 52.6221L257.924 63.9389L263.873 45.6279L248.297 34.3111H267.55L273.5 16Z" fill="#FFA800"/>
<path d="M326.5 16L332.45 34.3111H351.703L336.127 45.6279L342.076 63.9389L326.5 52.6221L310.924 63.9389L316.873 45.6279L301.297 34.3111H320.55L326.5 16Z" fill="#FFA800"/>
</svg>
